<?xml version="1.0" encoding="UTF-8" standalone="no"?>
<svg
   xmlns:dc="http://purl.org/dc/elements/1.1/"
   xmlns:cc="http://creativecommons.org/ns#"
   xmlns:rdf="http://www.w3.org/1999/02/22-rdf-syntax-ns#"
   xmlns:svg="http://www.w3.org/2000/svg"
   xmlns="http://www.w3.org/2000/svg"
   xmlns:sodipodi="http://sodipodi.sourceforge.net/DTD/sodipodi-0.dtd"
   xmlns:inkscape="http://www.inkscape.org/namespaces/inkscape"
   aria-hidden="true"
   focusable="false"
   data-prefix="fas"
   data-icon="share-alt"
   class="svg-inline--fa fa-share-alt fa-w-14"
   role="img"
   viewBox="0 0 1000 300"
   version="1.1"
   id="svg4"
   sodipodi:docname="icon.svg"
   width="1000"
   height="300"
   inkscape:version="1.0.1 (3bc2e813f5, 2020-09-07)">
  <metadata
     id="metadata10">
    <rdf:RDF>
      <cc:Work
         rdf:about="">
        <dc:format>image/svg+xml</dc:format>
        <dc:type
           rdf:resource="http://purl.org/dc/dcmitype/StillImage" />
        <dc:title></dc:title>
      </cc:Work>
    </rdf:RDF>
  </metadata>
  <defs
     id="defs8">
    <rect
       x="302.15359"
       y="133.2317"
       width="671.13995"
       height="305.2291"
       id="rect14" />
  </defs>
  <sodipodi:namedview
     pagecolor="#ffffff"
     bordercolor="#666666"
     borderopacity="1"
     objecttolerance="10"
     gridtolerance="10"
     guidetolerance="10"
     inkscape:pageopacity="0"
     inkscape:pageshadow="2"
     inkscape:window-width="1312"
     inkscape:window-height="704"
     id="namedview6"
     showgrid="false"
     inkscape:zoom="0.51181149"
     inkscape:cx="866.1477"
     inkscape:cy="441.7519"
     inkscape:window-x="54"
     inkscape:window-y="27"
     inkscape:window-maximized="1"
     inkscape:current-layer="svg4" />
  <path
     fill="currentColor"
     d="m 170.16729,181.52276 c -10.54056,0 -20.22839,3.64545 -27.87598,9.74191 L 94.509076,161.40065 a 45.015138,45.015138 0 0 0 0,-19.43393 l 47.782234,-29.86399 c 7.64759,6.0969 17.33542,9.74236 27.87598,9.74236 24.71915,0 44.75826,-20.0391 44.75826,-44.758237 0,-24.71914 -20.03911,-44.75825 -44.75826,-44.75825 -24.71913,0 -44.75825,20.03911 -44.75825,44.75825 0,3.33729 0.36833,6.58786 1.06116,9.71673 L 78.687974,116.66759 c -7.647592,-6.09644 -17.335422,-9.74191 -27.87599,-9.74191 -24.719139,0 -44.7582446,20.03911 -44.7582446,44.75824 0,24.71914 20.0391056,44.75825 44.7582446,44.75825 10.540568,0 20.228398,-3.64546 27.87599,-9.74191 l 47.782226,29.86401 a 44.898581,44.898581 0 0 0 -1.06116,9.71673 c 0,24.71914 20.03912,44.75824 44.75825,44.75824 24.71915,0 44.75826,-20.0391 44.75826,-44.75824 0,-24.71914 -20.03911,-44.75824 -44.75826,-44.75824 z"
     id="path2"
     style="fill:#b3dbff;fill-opacity:1;stroke-width:0.466232" />
  <text
     xml:space="preserve"
     id="text12"
     style="font-style:normal;font-weight:normal;font-size:266.667px;line-height:1.25;font-family:sans-serif;letter-spacing:0px;word-spacing:0px;white-space:pre;shape-inside:url(#rect14);fill:#0074d9;fill-opacity:1;stroke:none;"
     transform="matrix(1.2579989,0,0,1.2579989,-122.48253,-193.42298)"><tspan
       x="302.1543"
       y="369.51246"><tspan
         style="font-style:normal;font-variant:normal;font-weight:800;font-stretch:normal;font-size:266.667px;font-family:'Open Sans';-inkscape-font-specification:'Open Sans Ultra-Bold';fill:#0074d9;fill-opacity:1">FLIX</tspan></tspan></text>
</svg>
